<svg width="20" height="20" viewBox="0 0 20 20" fill="none" xmlns="http://www.w3.org/2000/svg">
<path d="M15.7389 4.26109C16.1351 4.65728 16.2101 5.22461 15.0215 6.41318L11.4347 10L15.0215 13.5868C16.2101 14.7754 16.1351 15.3427 15.7389 15.7389C15.3427 16.1351 14.7754 16.2101 13.5868 15.0215L9.99999 11.4347L6.41318 15.0215C5.22462 16.2101 4.65728 16.1351 4.26109 15.7389C3.8649 15.3427 3.78989 14.7754 4.97846 13.5868L8.56527 10L4.97846 6.41319C3.78989 5.22463 3.8649 4.65729 4.26109 4.2611C4.65728 3.86491 5.22462 3.7899 6.41318 4.97847L9.99999 8.56528L13.5868 4.97845C14.7754 3.78989 15.3427 3.8649 15.7389 4.26109Z" fill="white"/>
</svg>
