<svg width="20" height="20" viewBox="0 0 20 20" fill="none" xmlns="http://www.w3.org/2000/svg">
<path fill-rule="evenodd" clip-rule="evenodd" d="M4 6.61895V13.381C4 15.0444 4.00486 16.0725 4.10435 16.7746C4.11003 16.8147 4.11578 16.8518 4.12151 16.8861C4.12395 16.8851 4.12641 16.8841 4.12888 16.8832C4.7433 16.641 5.58638 16.1567 6.98041 15.3449L12.7868 11.9639C14.2482 11.1129 15.1398 10.5874 15.6953 10.1409C15.7619 10.0873 15.8166 10.0405 15.8613 10C15.8166 9.95953 15.7619 9.91266 15.6953 9.85912C15.1398 9.41263 14.2482 8.88707 12.7868 8.03612L6.98042 4.65508C5.58638 3.84334 4.7433 3.35899 4.12888 3.11684C4.12641 3.11587 4.12395 3.1149 4.12151 3.11394C4.11578 3.14821 4.11003 3.18528 4.10435 3.22535C4.00486 3.92746 4 4.95561 4 6.61895ZM2 6.61895V13.381C2 16.5789 2 18.1779 2.99308 18.7904C3.98617 19.4028 5.31972 18.6263 7.98682 17.0733L13.7932 13.6922C16.5977 12.0592 18 11.2426 18 10C18 8.75737 16.5977 7.94084 13.7932 6.30778L7.98682 2.92674C5.31972 1.3737 3.98617 0.59718 2.99308 1.20964C2 1.8221 2 3.42105 2 6.61895Z" fill="white"/>
</svg>
