<svg width="18" height="16" viewBox="0 0 18 16" fill="none" xmlns="http://www.w3.org/2000/svg">
<path d="M0 0H7V2.87526C6.88333 6.32558 6.66167 8.716 6.335 10.0465C5.705 12.6173 4.32833 14.6018 2.205 16L0.49 13.9027C1.12 13.4292 1.72667 12.5835 2.31 11.3658C2.91667 10.1705 3.24333 8.6709 3.29 6.86681L0 6.42706V0Z" fill="#232536"/>
<path d="M11 0H18V2.87526C17.8833 6.32558 17.6617 8.716 17.335 10.0465C16.705 12.6173 15.3283 14.6018 13.205 16L11.49 13.9027C12.12 13.4292 12.7267 12.5835 13.31 11.3658C13.9167 10.1705 14.2433 8.6709 14.29 6.86681L11 6.42706V0Z" fill="#232536"/>
</svg>
